<svg xmlns="http://www.w3.org/2000/svg" xmlns:xlink="http://www.w3.org/1999/xlink" width="159.154" height="174.879" viewBox="0 0 159.154 174.879">
  <defs>
    <clipPath id="clip-path">
      <rect id="Rectangle_8826" data-name="Rectangle 8826" width="16.868" height="13.633" transform="translate(0 13.629) rotate(-53.901)" fill="none"/>
    </clipPath>
  </defs>
  <g id="Group_3737" data-name="Group 3737" transform="translate(-1247.348 140.759)">
    <g id="Group_3723" data-name="Group 3723" transform="translate(1247.348 -5.874)">
      <path id="Path_3128" data-name="Path 3128" d="M787.9,1205.3a1.135,1.135,0,0,0-1.1,1.1,1.1,1.1,0,1,0,2.2,0A1.136,1.136,0,0,0,787.9,1205.3Z" transform="translate(-769.192 -1184.566)" fill="#ebe9e4"/>
      <path id="Path_3129" data-name="Path 3129" d="M775.951,1206.4a1.118,1.118,0,0,0-2.235,0,1.118,1.118,0,1,0,2.235,0Z" transform="translate(-760.157 -1184.566)" fill="#ebe9e4"/>
      <path id="Path_3130" data-name="Path 3130" d="M882.216,1207.534a1.17,1.17,0,0,0,1.134-1.134,1.118,1.118,0,0,0-2.235,0A1.165,1.165,0,0,0,882.216,1207.534Z" transform="translate(-834.317 -1184.566)" fill="#ebe9e4"/>
      <path id="Path_3131" data-name="Path 3131" d="M896.4,1206.4a1.1,1.1,0,0,0-2.2,0,1.1,1.1,0,1,0,2.2,0Z" transform="translate(-843.352 -1184.566)" fill="#ebe9e4"/>
      <path id="Path_3132" data-name="Path 3132" d="M794.765,1169.078v-5.8a.583.583,0,0,0-1.167,0v5.8a2.883,2.883,0,0,1-2.656,2.656h-7.225a2.857,2.857,0,0,1-2.656-2.656v-5.8a.687.687,0,0,0-.583-.583.627.627,0,0,0-.583.583v5.8a2.883,2.883,0,0,1-2.656,2.656h-3.823a2.857,2.857,0,0,1-2.657-2.656v-5.8a.687.687,0,0,0-.583-.583.627.627,0,0,0-.583.583v5.8a2.656,2.656,0,1,1-5.313,0v-5.8a.687.687,0,0,0-.583-.583.627.627,0,0,0-.583.583v5.8a2.656,2.656,0,1,1-5.313,0v-5.8a.687.687,0,0,0-.583-.583.627.627,0,0,0-.583.583v5.8a2.883,2.883,0,0,1-2.656,2.656h-3.5a2.857,2.857,0,0,1-2.656-2.656v-5.8a.687.687,0,0,0-.583-.583.627.627,0,0,0-.583.583v5.8a2.883,2.883,0,0,1-2.656,2.656h-3.856a2.826,2.826,0,0,1-2.624-2.656v-2.916a3.592,3.592,0,0,0-3.531-3.466.583.583,0,0,0,0,1.166,2.56,2.56,0,0,1,2.333,2.3v6.641a5.53,5.53,0,0,1-5.151,5.507.767.767,0,0,0-.583.583.687.687,0,0,0,.583.583,5.817,5.817,0,0,0,4.5-1.976c1.393-1.458,1.847-3.337,1.847-5.8a3.083,3.083,0,0,0,2.624,1.2H744a3.753,3.753,0,0,0,3.239-1.75,3.679,3.679,0,0,0,3.24,1.75h3.5a3.915,3.915,0,0,0,3.239-1.717,3.833,3.833,0,0,0,3.24,1.717,3.915,3.915,0,0,0,3.239-1.717,3.833,3.833,0,0,0,3.24,1.717,3.916,3.916,0,0,0,3.24-1.717,3.834,3.834,0,0,0,3.159,1.713c.016,0,.032,0,.048,0h3.855a3.753,3.753,0,0,0,3.239-1.75,3.679,3.679,0,0,0,3.239,1.75h7.225A3.894,3.894,0,0,0,794.765,1169.078Z" transform="translate(-730.377 -1155.148)" fill="#ebe9e4"/>
      <path id="Path_3133" data-name="Path 3133" d="M932.879,1140.542a1.118,1.118,0,1,0,0-2.236,1.118,1.118,0,0,0,0,2.236Z" transform="translate(-869.301 -1138.306)" fill="#ebe9e4"/>
      <path id="Path_3134" data-name="Path 3134" d="M919.827,1140.542a1.118,1.118,0,1,0-1.134-1.134A1.142,1.142,0,0,0,919.827,1140.542Z" transform="translate(-860.266 -1138.306)" fill="#ebe9e4"/>
      <path id="Path_3135" data-name="Path 3135" d="M999.173,1140.542a1.189,1.189,0,0,0,1.1-1.134,1.135,1.135,0,0,0-1.1-1.1,1.118,1.118,0,1,0,0,2.236Z" transform="translate(-915.056 -1138.306)" fill="#ebe9e4"/>
      <path id="Path_3136" data-name="Path 3136" d="M985.114,1140.542a1.118,1.118,0,1,0,0-2.236,1.136,1.136,0,0,0-1.1,1.1A1.19,1.19,0,0,0,985.114,1140.542Z" transform="translate(-905.37 -1138.306)" fill="#ebe9e4"/>
      <path id="Path_3137" data-name="Path 3137" d="M1046.14,1207.534a1.165,1.165,0,0,0,1.1-1.134,1.1,1.1,0,0,0-2.2,0A1.165,1.165,0,0,0,1046.14,1207.534Z" transform="translate(-947.51 -1184.566)" fill="#ebe9e4"/>
      <path id="Path_3138" data-name="Path 3138" d="M1033.055,1205.3a1.135,1.135,0,0,0-1.1,1.1,1.118,1.118,0,1,0,2.235,0A1.141,1.141,0,0,0,1033.055,1205.3Z" transform="translate(-938.474 -1184.566)" fill="#ebe9e4"/>
      <path id="Path_3139" data-name="Path 3139" d="M1059.108,1168.592a5.418,5.418,0,0,0-1.749-4.179,5.875,5.875,0,0,0-4.212-1.717h-5.41a5.363,5.363,0,0,0-3.823,1.458,4.587,4.587,0,0,0-1.619,3.628.583.583,0,1,0,1.166,0,4.331,4.331,0,0,1,4.276-3.92h5.41a4.971,4.971,0,0,1,4.794,4.73v3.142h-19.016a2.857,2.857,0,0,1-2.656-2.656v-1.263a5.165,5.165,0,0,0-5.086-5.119,4.941,4.941,0,0,0-3.564,1.425c-.389-1.166-.486-1.425-.972-1.425a.627.627,0,0,0-.583.583v5.8a2.856,2.856,0,0,1-2.656,2.656h-8.552l-1.75-1.425,5.7-4.536c1.166-.972,1.134-1.62,1-2.105-.194-.486-.518-.972-2.138-.972h-10.95c-1.587,0-1.911.454-2.138.972-.13.485-.162,1.134,1.037,2.105l5.637,4.536-1.75,1.425h-8.164a2.857,2.857,0,0,1-2.656-2.656v-5.8a.687.687,0,0,0-.583-.583.627.627,0,0,0-.583.583v5.8a2.883,2.883,0,0,1-2.656,2.656h-3.855a2.856,2.856,0,0,1-2.656-2.656v-1.3a5.1,5.1,0,1,0-5.086,5.119,4.872,4.872,0,0,0,4.179-2.268,3.93,3.93,0,0,0,3.564,2.268h3.855a3.753,3.753,0,0,0,3.239-1.75,3.679,3.679,0,0,0,3.239,1.75h8.553l2.3-1.847,2.3,1.847h8.909a3.852,3.852,0,0,0,3.531-2.268,4.907,4.907,0,0,0,4.244,2.268,4.985,4.985,0,0,0,4.243-2.268,3.775,3.775,0,0,0,3.45,2.266h20.232Zm-75.838,3.142a3.936,3.936,0,1,1,3.92-3.952A4.149,4.149,0,0,1,983.269,1171.734Zm22.418-7.451a.261.261,0,0,1-.1-.292.29.29,0,0,1,.259-.129h12.8c.13,0,.227.032.259.129a.217.217,0,0,1-.1.259l-6.608,5.313Zm25.5,7.451a3.936,3.936,0,1,1,3.919-3.92A4.144,4.144,0,0,1,1031.183,1171.734Z" transform="translate(-901.323 -1155.148)" fill="#ebe9e4"/>
      <path id="Path_3140" data-name="Path 3140" d="M1208.962,1207.9a1.118,1.118,0,1,0,1.134-1.134A1.142,1.142,0,0,0,1208.962,1207.9Z" transform="translate(-1060.701 -1185.577)" fill="#ebe9e4"/>
      <path id="Path_3141" data-name="Path 3141" d="M734.779,1240.448H732.5a2.669,2.669,0,0,0-1.816.7,2.362,2.362,0,0,0-.778,1.747.557.557,0,0,0,.546.546.548.548,0,0,0,.546-.546,1.464,1.464,0,0,1,1.5-1.352h2.28a1.747,1.747,0,0,1,1.734,1.693v1.024h-2.758a3.845,3.845,0,0,0-3.85,3.823.557.557,0,0,0,.546.546.548.548,0,0,0,.546-.546,2.771,2.771,0,0,1,2.757-2.731h3.85v-2.116a2.723,2.723,0,0,0-.833-1.979A2.84,2.84,0,0,0,734.779,1240.448Z" transform="translate(-729.905 -1208.837)" fill="#ebe9e4"/>
      <path id="Path_3142" data-name="Path 3142" d="M745.03,1259.416a.649.649,0,1,0,0,1.3.649.649,0,0,0,0-1.3Z" transform="translate(-739.896 -1221.934)" fill="#ebe9e4"/>
      <path id="Path_3143" data-name="Path 3143" d="M760.627,1228.405a.557.557,0,0,0-.546.546v7.536a.556.556,0,0,0,.546.546.548.548,0,0,0,.546-.546v-7.536A.548.548,0,0,0,760.627,1228.405Z" transform="translate(-750.742 -1200.521)" fill="#ebe9e4"/>
      <path id="Path_3144" data-name="Path 3144" d="M771.36,1240.448a2.451,2.451,0,1,0,0,4.9,2.326,2.326,0,0,0,1.338-.423c.068.86-1.01,1.584-2.171,1.584a.548.548,0,0,0-.546.546.557.557,0,0,0,.546.546,3.8,3.8,0,0,0,2.266-.724,2.453,2.453,0,0,0,.724-.833,1.984,1.984,0,0,0,.287-1.065v-2.089A2.459,2.459,0,0,0,771.36,1240.448Zm0,3.809a1.359,1.359,0,1,1,1.352-1.366A1.388,1.388,0,0,1,771.36,1244.257Z" transform="translate(-756.834 -1208.837)" fill="#ebe9e4"/>
      <path id="Path_3145" data-name="Path 3145" d="M793.19,1231.863a.665.665,0,0,0,.656-.656.653.653,0,0,0-.656-.641.641.641,0,0,0-.642.641A.653.653,0,0,0,793.19,1231.863Z" transform="translate(-773.161 -1202.013)" fill="#ebe9e4"/>
      <path id="Path_3146" data-name="Path 3146" d="M794.213,1228.405a.557.557,0,0,0-.546.546v6.171a.84.84,0,0,1-.819.819h-1.133a.84.84,0,0,1-.82-.819v-1.229a1.786,1.786,0,0,0-1.775-1.761.546.546,0,1,0,0,1.092.711.711,0,0,1,.683.669v2.8a1.98,1.98,0,0,1-1.871,2.021.567.567,0,0,0-.546.546.557.557,0,0,0,.546.546,2.837,2.837,0,0,0,2.116-.928,3.061,3.061,0,0,0,.833-2.02,2.035,2.035,0,0,0,.833.177h1.133a1.917,1.917,0,0,0,1.911-1.911v-6.171A.548.548,0,0,0,794.213,1228.405Z" transform="translate(-769.596 -1200.521)" fill="#ebe9e4"/>
      <path id="Path_3147" data-name="Path 3147" d="M818.152,1228.405a.557.557,0,0,0-.546.546v7.536a.557.557,0,0,0,.546.546.547.547,0,0,0,.546-.546v-7.536A.547.547,0,0,0,818.152,1228.405Z" transform="translate(-790.464 -1200.521)" fill="#ebe9e4"/>
      <path id="Path_3148" data-name="Path 3148" d="M858.388,1235.941H854.2v-1.024a1.737,1.737,0,0,1,1.734-1.693h.027a1.464,1.464,0,0,1,1.5,1.352.548.548,0,0,0,.546.546.557.557,0,0,0,.546-.546,2.315,2.315,0,0,0-.778-1.747,2.645,2.645,0,0,0-1.816-.7h-.027a2.841,2.841,0,0,0-1.993.805,2.724,2.724,0,0,0-.833,1.98v1.024h-1.515a.84.84,0,0,1-.819-.819v-6.171a.546.546,0,1,0-1.092,0v6.171a.84.84,0,0,1-.819.819h-1.134a.84.84,0,0,1-.819-.819v-1.229a1.783,1.783,0,0,0-1.761-1.761h-3.263a1.241,1.241,0,0,0-1.229,1.229v.532a1.241,1.241,0,0,0,1.229,1.229h1.938a.81.81,0,0,1-.805.819h-3.645a.85.85,0,0,1-.819-.819v-2.444a.546.546,0,0,0-1.092,0v2.444a1.917,1.917,0,0,0,1.911,1.911h3.645a1.917,1.917,0,0,0,1.911-1.911v-1.092h-3.181v-.806h3.4a.709.709,0,0,1,.669.669v1.229a1.917,1.917,0,0,0,1.911,1.911h1.134a1.912,1.912,0,0,1,2.731,0h6.8a.546.546,0,1,0,0-1.092Z" transform="translate(-804.172 -1200.521)" fill="#ebe9e4"/>
      <path id="Path_3149" data-name="Path 3149" d="M929.262,1231.208a.665.665,0,0,0,.656.656.641.641,0,0,0,.628-.656.629.629,0,0,0-.628-.641A.653.653,0,0,0,929.262,1231.208Z" transform="translate(-867.564 -1202.013)" fill="#ebe9e4"/>
      <path id="Path_3150" data-name="Path 3150" d="M924.366,1231.208a.641.641,0,0,0,.628.656.664.664,0,0,0,.655-.656.652.652,0,0,0-.655-.641A.629.629,0,0,0,924.366,1231.208Z" transform="translate(-864.183 -1202.013)" fill="#ebe9e4"/>
      <path id="Path_3151" data-name="Path 3151" d="M947.714,1231.85a.642.642,0,0,0,0-1.283.642.642,0,0,0,0,1.283Z" transform="translate(-879.872 -1202.013)" fill="#ebe9e4"/>
      <path id="Path_3152" data-name="Path 3152" d="M930.444,1240.448a2.458,2.458,0,0,0-2.444,2.443,1.729,1.729,0,0,0,.669,1.366h-1.98a.84.84,0,0,1-.819-.82v-.546a2.451,2.451,0,1,0-2.444,2.458,2.349,2.349,0,0,0,1.747-.751,1.875,1.875,0,0,0,1.516.751H932.9v-2.458A2.461,2.461,0,0,0,930.444,1240.448Zm-7.018,3.809a1.359,1.359,0,1,1,1.352-1.366A1.388,1.388,0,0,1,923.427,1244.257Zm8.383,0h-1.365a1.359,1.359,0,1,1,1.365-1.366Z" transform="translate(-861.838 -1208.837)" fill="#ebe9e4"/>
      <path id="Path_3153" data-name="Path 3153" d="M952.637,1231.85a.642.642,0,0,0,0-1.283.642.642,0,1,0,0,1.283Z" transform="translate(-883.253 -1202.013)" fill="#ebe9e4"/>
      <path id="Path_3154" data-name="Path 3154" d="M973.518,1235.941h-4.191v-1.024a1.737,1.737,0,0,1,1.734-1.693h.027a1.464,1.464,0,0,1,1.5,1.352.548.548,0,0,0,.546.546.557.557,0,0,0,.546-.546,2.314,2.314,0,0,0-.778-1.747,2.644,2.644,0,0,0-1.816-.7h-.027a2.842,2.842,0,0,0-1.993.805,2.724,2.724,0,0,0-.833,1.98v1.024h-1.5a.84.84,0,0,1-.819-.819v-6.171a.557.557,0,0,0-.546-.546.548.548,0,0,0-.546.546v6.171a1.917,1.917,0,0,0,1.911,1.911h6.785a.546.546,0,1,0,0-1.092Z" transform="translate(-892.118 -1200.521)" fill="#ebe9e4"/>
      <path id="Path_3155" data-name="Path 3155" d="M1002.772,1228.405a.557.557,0,0,0-.546.546v5.638a1.394,1.394,0,0,1-1.365,1.352h-2.539a.556.556,0,0,0-.546.546.548.548,0,0,0,.546.546h2.539a2.462,2.462,0,0,0,2.457-2.444v-5.638A.566.566,0,0,0,1002.772,1228.405Z" transform="translate(-914.873 -1200.521)" fill="#ebe9e4"/>
      <path id="Path_3156" data-name="Path 3156" d="M1003.411,1234.589v-5.638a.557.557,0,0,0-.546-.546.566.566,0,0,0-.546.546v5.638a.557.557,0,0,0,.546.546A.548.548,0,0,0,1003.411,1234.589Z" transform="translate(-918.011 -1200.521)" fill="#ebe9e4"/>
      <path id="Path_3157" data-name="Path 3157" d="M1006.117,1259.439l-.478-.642a.222.222,0,0,1-.055-.191.183.183,0,0,1,.123-.123l.71-.26v.533a.341.341,0,1,0,.683,0v-1.5l-1.679.6a.862.862,0,0,0-.328,1.352l.246.328a2.046,2.046,0,0,0-.546.273.336.336,0,0,0-.1.478.345.345,0,0,0,.478.082,1.537,1.537,0,0,1,.764-.246h.041a1.49,1.49,0,0,1,.846.246.324.324,0,0,0,.191.068.356.356,0,0,0,.286-.15.361.361,0,0,0-.1-.478A2.22,2.22,0,0,0,1006.117,1259.439Z" transform="translate(-919.611 -1220.442)" fill="#ebe9e4"/>
      <path id="Path_3158" data-name="Path 3158" d="M1021.525,1228.405a.557.557,0,0,0-.546.546v7.536a.557.557,0,0,0,.546.546.548.548,0,0,0,.546-.546v-7.536A.548.548,0,0,0,1021.525,1228.405Z" transform="translate(-930.896 -1200.521)" fill="#ebe9e4"/>
      <path id="Path_3159" data-name="Path 3159" d="M1047.754,1241.54a.546.546,0,1,0,0-1.092h-2.512a1.241,1.241,0,0,0-1.229,1.229v.532a1.241,1.241,0,0,0,1.229,1.229h1.965a.84.84,0,0,1-.819.82h-3.645a.84.84,0,0,1-.819-.82v-2.444a.557.557,0,0,0-.546-.546.548.548,0,0,0-.546.546v2.444a1.917,1.917,0,0,0,1.911,1.911h3.645a1.917,1.917,0,0,0,1.911-1.911v-1.092h-3.195v-.806Z" transform="translate(-944.605 -1208.837)" fill="#ebe9e4"/>
      <path id="Path_3160" data-name="Path 3160" d="M1053.927,1258.8a.644.644,0,0,0-.656.642.656.656,0,0,0,.656.655.641.641,0,0,0,.628-.655A.63.63,0,0,0,1053.927,1258.8Z" transform="translate(-953.194 -1221.508)" fill="#ebe9e4"/>
      <path id="Path_3161" data-name="Path 3161" d="M1049,1258.8a.63.63,0,0,0-.628.642.641.641,0,0,0,.628.655.653.653,0,0,0,.642-.655A.641.641,0,0,0,1049,1258.8Z" transform="translate(-949.813 -1221.508)" fill="#ebe9e4"/>
      <path id="Path_3162" data-name="Path 3162" d="M1070.509,1240.448a2.451,2.451,0,1,0,0,4.9,2.324,2.324,0,0,0,1.338-.423c.068.86-1.01,1.584-2.171,1.584a.548.548,0,0,0-.546.546.557.557,0,0,0,.546.546,3.806,3.806,0,0,0,2.267-.724,2.46,2.46,0,0,0,.724-.833,1.984,1.984,0,0,0,.287-1.065v-2.089A2.459,2.459,0,0,0,1070.509,1240.448Zm0,3.809a1.359,1.359,0,1,1,1.352-1.366A1.388,1.388,0,0,1,1070.509,1244.257Z" transform="translate(-963.4 -1208.837)" fill="#ebe9e4"/>
      <path id="Path_3163" data-name="Path 3163" d="M1093.455,1231.863a.653.653,0,0,0,.642-.656.648.648,0,0,0-1.3,0A.655.655,0,0,0,1093.455,1231.863Z" transform="translate(-980.49 -1202.013)" fill="#ebe9e4"/>
      <path id="Path_3164" data-name="Path 3164" d="M1089.966,1240.448h-1.078a1.917,1.917,0,0,0-1.911,1.911.557.557,0,0,0,.546.546.548.548,0,0,0,.546-.546.85.85,0,0,1,.819-.819h1.078a.84.84,0,0,1,.819.819v1.9h-3.263a.546.546,0,1,0,0,1.092h4.355v-2.99A1.917,1.917,0,0,0,1089.966,1240.448Z" transform="translate(-976.468 -1208.837)" fill="#ebe9e4"/>
      <path id="Path_3165" data-name="Path 3165" d="M1126.506,1231.208a.629.629,0,0,0-.628-.641.649.649,0,1,0,0,1.3A.633.633,0,0,0,1126.506,1231.208Z" transform="translate(-1002.878 -1202.013)" fill="#ebe9e4"/>
      <path id="Path_3166" data-name="Path 3166" d="M1119.374,1240.448a2.451,2.451,0,1,0,2.457,2.458A2.462,2.462,0,0,0,1119.374,1240.448Zm0,3.809a1.359,1.359,0,1,1,1.365-1.352A1.382,1.382,0,0,1,1119.374,1244.257Z" transform="translate(-997.152 -1208.837)" fill="#ebe9e4"/>
      <path id="Path_3167" data-name="Path 3167" d="M1121.61,1231.208a.652.652,0,0,0-.655-.641.649.649,0,0,0,0,1.3A.655.655,0,0,0,1121.61,1231.208Z" transform="translate(-999.497 -1202.013)" fill="#ebe9e4"/>
      <path id="Path_3168" data-name="Path 3168" d="M1149.037,1244.257h-4.191v-1.024a1.738,1.738,0,0,1,1.734-1.693h.027a1.464,1.464,0,0,1,1.5,1.352.548.548,0,0,0,.546.546.557.557,0,0,0,.546-.546,2.315,2.315,0,0,0-.778-1.747,2.645,2.645,0,0,0-1.816-.7h-.027a2.841,2.841,0,0,0-1.993.806,2.723,2.723,0,0,0-.833,1.979v1.024h-1.516a.84.84,0,0,1-.819-.82v-1.078a1.917,1.917,0,0,0-1.911-1.911h-1.078a1.917,1.917,0,0,0-1.911,1.911.546.546,0,1,0,1.092,0,.84.84,0,0,1,.819-.819h1.078a.84.84,0,0,1,.82.819v1.078a.84.84,0,0,1-.82.82h-2.444a.546.546,0,1,0,0,1.092h2.444a1.912,1.912,0,0,1,2.731,0h6.8a.546.546,0,1,0,0-1.092Z" transform="translate(-1010.677 -1208.837)" fill="#ebe9e4"/>
      <path id="Path_3169" data-name="Path 3169" d="M1200.195,1232.132a2.252,2.252,0,0,0-1.365.423.561.561,0,0,0-.546-.423.548.548,0,0,0-.546.546v2.444a.85.85,0,0,1-.819.819h-1.666a.84.84,0,0,1-.819-.819v-2.444a.557.557,0,0,0-.546-.546.548.548,0,0,0-.546.546v2.444a.85.85,0,0,1-.819.819.84.84,0,0,1-.819-.819v-2.444a.557.557,0,0,0-.546-.546.548.548,0,0,0-.546.546v2.444a.85.85,0,0,1-.819.819.84.84,0,0,1-.819-.819v-2.444a.556.556,0,0,0-.546-.546.548.548,0,0,0-.546.546v2.444a.85.85,0,0,1-.819.819h-1.119a.84.84,0,0,1-.82-.819v-6.171a.557.557,0,0,0-.546-.546.548.548,0,0,0-.546.546v6.171a1.917,1.917,0,0,0,1.911,1.911h1.119a1.943,1.943,0,0,0,1.365-.573,1.9,1.9,0,0,0,1.365.573,1.943,1.943,0,0,0,1.365-.573,1.9,1.9,0,0,0,1.365.573,1.943,1.943,0,0,0,1.365-.573,1.9,1.9,0,0,0,1.365.573h1.666a1.914,1.914,0,0,0,1.516-.751,2.358,2.358,0,0,0,1.761.751,2.45,2.45,0,0,0,0-4.9Zm0,3.809a1.359,1.359,0,1,1,1.352-1.366A1.388,1.388,0,0,1,1200.195,1235.941Z" transform="translate(-1043.485 -1200.521)" fill="#ebe9e4"/>
    </g>
    <g id="Group_3734" data-name="Group 3734" transform="translate(1272.001 -84.289)">
      <g id="Group_3724" data-name="Group 3724" transform="translate(55.951 9.254)">
        <path id="Path_3170" data-name="Path 3170" d="M484.258,1176.067q-.921,0-1.5-.04a9.043,9.043,0,0,1-1.422-.24l-2.524-.841v6.368a4.287,4.287,0,0,1-.481,2.083,4.893,4.893,0,0,1-1.262,1.5,6.545,6.545,0,0,1-1.8,1,10.361,10.361,0,0,1-2.1.541v-1.122a10.579,10.579,0,0,0,1.7-.541,5.49,5.49,0,0,0,1.422-.841,3.9,3.9,0,0,0,.961-1.181,3.29,3.29,0,0,0,.36-1.562v-19.025h1.2v11.5l1.322.441a17.14,17.14,0,0,0,1.822.5,10.691,10.691,0,0,0,2.383.26h.521v1.2Z" transform="translate(-473.163 -1152.636)" fill="#fff"/>
        <path id="Path_3171" data-name="Path 3171" d="M520.909,1203.38v1.2H509.694v-1.2Z" transform="translate(-498.439 -1181.151)" fill="#fff"/>
        <path id="Path_3172" data-name="Path 3172" d="M556.4,1203.38v1.2H545.186v-1.2Z" transform="translate(-522.996 -1181.151)" fill="#fff"/>
        <path id="Path_3173" data-name="Path 3173" d="M577.818,1153.458h6.048v-6.208a29.982,29.982,0,0,1,.161-3.284,5.984,5.984,0,0,1,.761-2.443,3.667,3.667,0,0,1,1.8-1.5,8.738,8.738,0,0,1,3.284-.5,8.9,8.9,0,0,1,3.3.5,3.769,3.769,0,0,1,1.842,1.5,5.8,5.8,0,0,1,.781,2.443,30.019,30.019,0,0,1,.16,3.284,28.811,28.811,0,0,1-.16,3.265,5.121,5.121,0,0,1-.781,2.3,3.722,3.722,0,0,1-1.842,1.382,9.614,9.614,0,0,1-3.3.461H577.818Zm14.78-.361a2.947,2.947,0,0,0,1.5-1.1,4.11,4.11,0,0,0,.621-1.9,26.82,26.82,0,0,0,.12-2.723,27.213,27.213,0,0,0-.14-2.924,5.407,5.407,0,0,0-.641-2.143,3.168,3.168,0,0,0-1.462-1.3,6.472,6.472,0,0,0-2.644-.441,7.03,7.03,0,0,0-2.7.421,2.966,2.966,0,0,0-1.462,1.261,5.383,5.383,0,0,0-.621,2.083,26.407,26.407,0,0,0-.14,2.923v6.208h4.806A8.441,8.441,0,0,0,592.6,1153.1Zm-4.666-21.529a1.169,1.169,0,0,1,.34.862,1.074,1.074,0,0,1-.34.781,1.166,1.166,0,0,1-.861.34,1.164,1.164,0,0,1-1.122-1.121,1.169,1.169,0,0,1,.34-.862,1.075,1.075,0,0,1,.781-.34A1.168,1.168,0,0,1,587.932,1131.568Zm5.047,0a1.17,1.17,0,0,1,.34.862,1.075,1.075,0,0,1-.34.781,1.166,1.166,0,0,1-.861.34A1.165,1.165,0,0,1,591,1132.43a1.17,1.17,0,0,1,.34-.862,1.076,1.076,0,0,1,.781-.34A1.168,1.168,0,0,1,592.978,1131.568Z" transform="translate(-545.574 -1131.228)" fill="#fff"/>
      </g>
      <g id="Group_3725" data-name="Group 3725" transform="translate(49.992 5.376)">
        <path id="Path_3174" data-name="Path 3174" d="M462.157,1119.919a2.665,2.665,0,0,0-1.366-.368,1.544,1.544,0,0,0-1.086.385q-.42.385-.858.841a6.105,6.105,0,0,1-1.016.841,2.778,2.778,0,0,1-1.559.385,2.551,2.551,0,0,1-1.471-.385,6.962,6.962,0,0,1-.981-.806v-.6a4.964,4.964,0,0,0,1.191.683,3.668,3.668,0,0,0,1.261.193,1.542,1.542,0,0,0,1.086-.386q.421-.385.858-.84a6.079,6.079,0,0,1,1.016-.84,2.773,2.773,0,0,1,1.559-.385,2.372,2.372,0,0,1,1.576.56q.665.56,1.086.981v.6A14.517,14.517,0,0,0,462.157,1119.919Zm-4.588,3.7h1.051v24.761h-1.051Z" transform="translate(-453.821 -1118.641)" fill="#fff"/>
      </g>
      <g id="Group_3732" data-name="Group 3732" transform="translate(0 0)">
        <g id="Group_3726" data-name="Group 3726" transform="translate(13.683 29.944)">
          <path id="Path_3175" data-name="Path 3175" d="M354.638,1235.718a18.666,18.666,0,1,1,18.666-18.666A18.687,18.687,0,0,1,354.638,1235.718Zm0-36.109a17.443,17.443,0,1,0,17.443,17.443A17.463,17.463,0,0,0,354.638,1199.609Z" transform="translate(-335.971 -1198.385)" fill="#ebe9e4"/>
        </g>
        <path id="Path_3176" data-name="Path 3176" d="M368.671,1133.1v1.943a17.444,17.444,0,1,1-27.035-1.266v-1.763a18.667,18.667,0,1,0,27.035,1.086Z" transform="translate(-322.288 -1122.515)" fill="#ebe9e4"/>
        <rect id="Rectangle_8824" data-name="Rectangle 8824" width="3.309" height="3.762" rx="1.654" transform="translate(30.695 9.494)" fill="#ebe9e4"/>
        <g id="Group_3730" data-name="Group 3730" transform="translate(0 0)">
          <g id="Group_3729" data-name="Group 3729" transform="translate(0 0)" clip-path="url(#clip-path)">
            <g id="Group_3728" data-name="Group 3728">
              <g id="Group_3727" data-name="Group 3727" clip-path="url(#clip-path)">
                <path id="Path_3177" data-name="Path 3177" d="M309.829,1118.468l-4.207-6.089,2.109-2.945Zm-10.6,2.62,2.16-2.909,7.084,2.144Zm-1.583-3.432,3.029.04-2.05,2.761Zm2.671-.805-2.071-.027,1.873-2.569Zm3.709-5.086-2.531.6,1.872-2.568Zm-2.777,5.043-.12.017-.252-3.461,3.366-.823.027.124Zm8.459,2.995-7.776-2.353,3.158-4.331Zm-2.765-10.751-2,2.8-.964-2.873Zm1.053-.831-.143,0a.435.435,0,0,0-.149,0l-3.995-.113a.448.448,0,0,0-.372.164l-3.281,4.5-3.282,4.5a.449.449,0,0,0-.043.4l1.322,3.764a.459.459,0,0,0,.052.14l.05.138a.434.434,0,0,0,.444.289l12.192-1.009.014,0a.414.414,0,0,0,.067-.013l.028-.01.027-.009.015-.01a.436.436,0,0,0,.063-.038c.009-.006.052.014.06.007.026-.021.084-.02.1-.047h0c.02-.027,0-.083.013-.113,0-.01-.011-.032-.008-.042a.514.514,0,0,0,.009-.079c0-.006,0-.015,0-.02s0-.02,0-.03,0-.022,0-.032a.4.4,0,0,0-.008-.067c0-.005,0-.01,0-.015l-2.767-11.916A.432.432,0,0,0,308,1108.22Z" transform="translate(-295.12 -1105.972)" fill="#ebe9e4"/>
              </g>
            </g>
          </g>
        </g>
        <g id="Group_3731" data-name="Group 3731" transform="translate(41.996 55.6)">
          <rect id="Rectangle_8827" data-name="Rectangle 8827" width="1.154" height="14.791" transform="translate(0 0.88) rotate(-49.662)" fill="#ebe9e4"/>
        </g>
      </g>
      <g id="Group_3733" data-name="Group 3733" transform="translate(52.41 40.564)">
        <path id="Path_3178" data-name="Path 3178" d="M461.669,1233.983a1.086,1.086,0,1,1,2.171,0,1.087,1.087,0,0,1-2.171,0Zm.565,18.884v-13.412h1.041v13.412Z" transform="translate(-461.669 -1232.853)" fill="#ebe9e4"/>
        <path id="Path_3179" data-name="Path 3179" d="M501.9,1253.369l-.149.981a4.873,4.873,0,0,0-1.13-.119c-2.5,0-4.253,1.873-4.253,4.7v8.03h-1.011V1253.4l.893-.178.119,2.349a4.529,4.529,0,0,1,4.193-2.349A7.962,7.962,0,0,1,501.9,1253.369Z" transform="translate(-484.978 -1246.945)" fill="#ebe9e4"/>
        <path id="Path_3180" data-name="Path 3180" d="M542.945,1257.651v9.308h-.922l-.149-2.112a6.013,6.013,0,0,1-5.264,2.439c-2.588,0-4.283-1.457-4.283-3.688,0-2.052,1.7-3.45,4.193-3.45H541.9v-2.438c0-2.141-1.546-3.539-3.955-3.539a6.624,6.624,0,0,0-4.164,1.725l-.565-.744a7.31,7.31,0,0,1,4.758-1.933C540.952,1253.22,542.945,1255,542.945,1257.651Zm-1.041,4.163v-.743h-5.323c-1.934,0-3.242,1.011-3.242,2.528,0,1.665,1.338,2.765,3.361,2.765C539.822,1266.365,541.9,1264.551,541.9,1261.815Z" transform="translate(-510.558 -1246.945)" fill="#ebe9e4"/>
        <path id="Path_3181" data-name="Path 3181" d="M602.071,1254.707a4.933,4.933,0,0,1,1.516,3.718v8.535h-1.011v-8.475c0-2.469-1.844-4.193-4.55-4.193a4.238,4.238,0,0,0-4.55,4.46v8.208h-1.011v-13.591l.892-.149.149,2.32a5.209,5.209,0,0,1,4.61-2.32A5.436,5.436,0,0,1,602.071,1254.707Z" transform="translate(-552.167 -1246.945)" fill="#ebe9e4"/>
      </g>
    </g>
    <g id="Group_3735" data-name="Group 3735" transform="translate(1276.046 -140.759)">
      <path id="Path_3182" data-name="Path 3182" d="M458.412,176.82l47.415,36.045,1.138-1.5L459.55,175.323" transform="translate(-452.216 -162.876)" fill="#ebe9e4"/>
      <path id="Path_3183" data-name="Path 3183" d="M579.723,307.732l16.626,12.658,1.139-1.5-16.625-12.658-1.139,1.5" transform="translate(-550.535 -268.979)" fill="#ebe9e4"/>
      <path id="Path_3184" data-name="Path 3184" d="M798.4,334.152l-8.761,7.69,1.238,1.411,8.761-7.69" transform="translate(-720.666 -291.604)" fill="#ebe9e4"/>
      <path id="Path_3185" data-name="Path 3185" d="M574.76,344.147l9.275,7.061,1.137-1.494-9.275-7.061-1.137,1.494" transform="translate(-546.513 -298.494)" fill="#ebe9e4"/>
      <path id="Path_3186" data-name="Path 3186" d="M716.54,252.053l-16.675,14.835,1.251,1.406,16.674-14.835" transform="translate(-647.908 -225.065)" fill="#ebe9e4"/>
      <path id="Path_3187" data-name="Path 3187" d="M758.749,297.267l-15.7,13.784,1.24,1.412,15.7-13.784" transform="translate(-682.903 -261.709)" fill="#ebe9e4"/>
      <path id="Path_3188" data-name="Path 3188" d="M616.493,261.495l17.241,13.257,1.146-1.49L617.639,260" transform="translate(-580.336 -231.509)" fill="#ebe9e4"/>
      <path id="Path_3189" data-name="Path 3189" d="M711.284,239.9l-9.8,8.439,1.229,1.427,9.8-8.439" transform="translate(-649.216 -215.218)" fill="#ebe9e4"/>
      <path id="Path_3190" data-name="Path 3190" d="M831.3,358.618l-4.915,4.314,1.239,1.412,4.915-4.314" transform="translate(-750.45 -311.433)" fill="#ebe9e4"/>
      <path id="Path_3191" data-name="Path 3191" d="M707.849,221.842l-5.471,4.973,1.259,1.386,5.471-4.973" transform="translate(-649.944 -200.58)" fill="#ebe9e4"/>
      <path id="Path_3192" data-name="Path 3192" d="M848.4,335.176l-13.6-1.136-.157,1.878,13.6,1.136" transform="translate(-757.142 -291.513)" fill="#ebe9e4"/>
      <path id="Path_3193" data-name="Path 3193" d="M751.482,189.2l.425-13.5-1.883-.059-.424,13.5" transform="translate(-688.216 -163.136)" fill="#ebe9e4"/>
      <path id="Path_3194" data-name="Path 3194" d="M847.948,298.881l-22.555-1.469-.122,1.875,22.555,1.469" transform="translate(-749.545 -261.827)" fill="#ebe9e4"/>
      <path id="Path_3195" data-name="Path 3195" d="M786.156,160.076l1.506-23.122-1.877-.122-1.506,23.122" transform="translate(-716.322 -131.68)" fill="#ebe9e4"/>
      <path id="Path_3196" data-name="Path 3196" d="M853.626,265.424l-30.071-1.958-.122,1.878L853.5,267.3" transform="translate(-748.056 -234.314)" fill="#ebe9e4"/>
      <path id="Path_3197" data-name="Path 3197" d="M748.131,160.813l-44.9,39.131,1.235,1.417,44.9-39.131" transform="translate(-650.635 -151.117)" fill="#ebe9e4"/>
      <path id="Path_3198" data-name="Path 3198" d="M820.5,109.652l-1.94,29.788,1.876.122,1.94-29.788" transform="translate(-744.107 -109.652)" fill="#ebe9e4"/>
      <path id="Path_3199" data-name="Path 3199" d="M883.043,233.409l-23.4-1.524-.12,1.837,23.4,1.524" transform="translate(-777.302 -208.719)" fill="#ebe9e4"/>
      <path id="Path_3200" data-name="Path 3200" d="M855.944,112.98l-2.2,23.636,1.871.174,2.2-23.636" transform="translate(-772.624 -112.349)" fill="#ebe9e4"/>
      <path id="Path_3201" data-name="Path 3201" d="M887.018,117.5l-1.793,17.251,1.867.194,1.793-17.251" transform="translate(-798.137 -116.01)" fill="#ebe9e4"/>
      <path id="Path_3202" data-name="Path 3202" d="M891.4,206.441l17.47.69.074-1.877-17.47-.69" transform="translate(-803.143 -186.576)" fill="#ebe9e4"/>
      <path id="Path_3203" data-name="Path 3203" d="M919.666,182.108l8.1.181.041-1.846-8.1-.181" transform="translate(-826.05 -166.879)" fill="#ebe9e4"/>
      <path id="Path_3204" data-name="Path 3204" d="M914.951,148.776l.982-8.186-1.871-.224-.982,8.186" transform="translate(-820.713 -134.544)" fill="#ebe9e4"/>
      <path id="Path_3205" data-name="Path 3205" d="M650.678,244.422l10.721,8.211,1.142-1.49-10.721-8.211" transform="translate(-608.042 -217.672)" fill="#ebe9e4"/>
      <path id="Path_3206" data-name="Path 3206" d="M671.412,223.444l6.784,5.17,1.136-1.49-6.784-5.17" transform="translate(-624.847 -200.67)" fill="#ebe9e4"/>
      <path id="Path_3207" data-name="Path 3207" d="M561.177,369.484l5.2,3.961,1.112-1.461-5.2-3.961-1.112,1.461" transform="translate(-535.504 -319.055)" fill="#ebe9e4"/>
      <path id="Path_3208" data-name="Path 3208" d="M642.3,178.765l1.585,13.554,1.871-.219-1.585-13.554" transform="translate(-601.251 -165.489)" fill="#ebe9e4"/>
      <path id="Path_3209" data-name="Path 3209" d="M523.648,342.873l-13.314,2.262.315,1.857,13.314-2.262-.316-1.857" transform="translate(-494.297 -298.672)" fill="#ebe9e4"/>
      <path id="Path_3210" data-name="Path 3210" d="M600.639,148.585l3.035,22.4,1.862-.252-3.035-22.4" transform="translate(-567.487 -141.002)" fill="#ebe9e4"/>
      <path id="Path_3211" data-name="Path 3211" d="M487.574,306.469l-22.962,3.111.253,1.864,22.962-3.111" transform="translate(-457.241 -269.167)" fill="#ebe9e4"/>
      <path id="Path_3212" data-name="Path 3212" d="M562.4,117.742l4.046,29.861,1.865-.253-4.046-29.861" transform="translate(-536.496 -116.004)" fill="#ebe9e4"/>
      <path id="Path_3213" data-name="Path 3213" d="M430.975,277.166l29.581-4.008L460.3,271.3,430.723,275.3" transform="translate(-429.774 -240.66)" fill="#ebe9e4"/>
      <path id="Path_3214" data-name="Path 3214" d="M529.02,123.608l3.149,23.242,1.824-.247-3.149-23.242" transform="translate(-509.441 -120.763)" fill="#ebe9e4"/>
      <path id="Path_3215" data-name="Path 3215" d="M427.211,246.965l23.6-2.535-.2-1.868-23.6,2.535" transform="translate(-426.765 -217.372)" fill="#ebe9e4"/>
      <path id="Path_3216" data-name="Path 3216" d="M425.9,221.02l17.264-1.665-.18-1.869-17.264,1.665" transform="translate(-425.717 -197.05)" fill="#ebe9e4"/>
      <path id="Path_3217" data-name="Path 3217" d="M502.511,146.308l-2.789-17.26-1.854.3,2.79,17.26" transform="translate(-484.193 -125.373)" fill="#ebe9e4"/>
      <path id="Path_3218" data-name="Path 3218" d="M478.894,163.167l-1.429-7.975-1.818.326,1.429,7.975" transform="translate(-466.184 -146.561)" fill="#ebe9e4"/>
      <path id="Path_3219" data-name="Path 3219" d="M451.831,195.091l-8.218.661.151,1.878,8.219-.661" transform="translate(-440.221 -178.898)" fill="#ebe9e4"/>
    </g>
  </g>
</svg>
